<?xml version="1.0" encoding="utf-8"?>
<!-- Generator: Adobe Illustrator 23.0.6, SVG Export Plug-In . SVG Version: 6.00 Build 0)  -->
<svg version="1.1" id="Layer_1" xmlns="http://www.w3.org/2000/svg" xmlns:xlink="http://www.w3.org/1999/xlink" x="0px" y="0px"
	 viewBox="0 0 32 32" style="enable-background:new 0 0 32 32;" xml:space="preserve">
<style type="text/css">
	.st0{fill:#F15A2A;}
</style>
<g>
	<g>
		<g>
			<path class="st0" d="M16,8.9L5.2,17.8c0,0,0,0,0,0.1c0,0,0,0,0,0.1v9c0,0.3,0.1,0.6,0.4,0.8c0.2,0.2,0.5,0.4,0.8,0.4h7.2v-7.2
				h4.8v7.2h7.2c0.3,0,0.6-0.1,0.8-0.4c0.2-0.2,0.4-0.5,0.4-0.8v-9c0,0,0-0.1,0-0.1L16,8.9z"/>
			<path class="st0" d="M30.9,15.8l-4.1-3.4V4.7c0-0.2-0.1-0.3-0.2-0.4c-0.1-0.1-0.3-0.2-0.4-0.2h-3.6c-0.2,0-0.3,0.1-0.4,0.2
				C22.1,4.4,22,4.5,22,4.7v3.7l-4.6-3.8C17,4.2,16.6,4.1,16,4.1c-0.6,0-1,0.2-1.4,0.5L1.1,15.8C1,15.9,0.9,16,0.9,16.2
				c0,0.2,0,0.3,0.1,0.4L2.2,18c0.1,0.1,0.2,0.2,0.4,0.2c0.2,0,0.3,0,0.5-0.1L16,7.3l13,10.8c0.1,0.1,0.2,0.1,0.4,0.1h0.1
				c0.2,0,0.3-0.1,0.4-0.2l1.2-1.4c0.1-0.1,0.1-0.3,0.1-0.4C31.1,16,31,15.9,30.9,15.8z"/>
		</g>
	</g>
	<g>
	</g>
	<g>
	</g>
	<g>
	</g>
	<g>
	</g>
	<g>
	</g>
	<g>
	</g>
	<g>
	</g>
	<g>
	</g>
	<g>
	</g>
	<g>
	</g>
	<g>
	</g>
	<g>
	</g>
	<g>
	</g>
	<g>
	</g>
	<g>
	</g>
</g>
</svg>
