<?xml version="1.0" encoding="utf-8"?>
<!-- Generator: Adobe Illustrator 23.0.6, SVG Export Plug-In . SVG Version: 6.00 Build 0)  -->
<svg version="1.1" xmlns="http://www.w3.org/2000/svg" xmlns:xlink="http://www.w3.org/1999/xlink" x="0px" y="0px"
	 viewBox="0 0 380 240" style="enable-background:new 0 0 380 240;" xml:space="preserve">
<style type="text/css">
	.st0{fill:#23313A;}
	.st1{fill:#CADAF1;}
	.st2{fill:#EE2324;}
	.st3{fill:url(#SVGID_1_);}
	.st4{fill:#FFFFFF;}
	.st5{fill:#E1C322;}
	.st6{fill:#EBD616;}
	.st7{opacity:0.11;}
	.st8{fill:#386080;}
	.st9{fill:#EE8423;}
	.st10{fill:#C37027;}
	.st11{fill:#FDF390;}
	.st12{fill:#F4AF26;}
	.st13{fill:#8F1920;}
	.st14{fill:#CC2127;}
	.st15{fill:#638E9A;}
	.st16{fill:#EA5525;}
	.st17{fill:#FEEE47;}
</style>
<g id="Main_Text">
	<g>
		<path class="st0" d="M42.3,158.9l11.9-8.7l3.8,5.2l-5.6,4.1l4.4,6l5.7-4.2l3.9,5.3l-5.7,4.2l8.4,11.5l-6.3,4.6L42.3,158.9z"/>
		<path class="st0" d="M77,176.5l-14.3-26c-0.2-0.5-0.4-1-0.5-1.6c-0.1-0.6,0-1.3,0.1-1.9c0.1-0.6,0.4-1.2,0.8-1.8
			c0.4-0.6,0.9-1,1.5-1.4l8-4.4c0.6-0.3,1.2-0.5,1.9-0.6c0.7-0.1,1.3-0.1,2,0.1c0.7,0.1,1.3,0.4,1.8,0.8c0.6,0.4,1,0.9,1.4,1.5
			l14.3,26l-6.8,3.8l-3.6-6.6l-3.3,1.8l3.6,6.6L77,176.5z M77,160.5l3.3-1.8l-6.2-11.2c-0.2-0.3-0.5-0.5-0.8-0.6
			c-0.3-0.1-0.8,0-1.5,0.2c-0.3,0.3-0.6,0.6-0.9,0.9c-0.2,0.3-0.3,0.8-0.1,1.3L77,160.5z"/>
		<path class="st0" d="M96.5,166l-12.9-32.2l7.6-3l9.1,12.8l-5.6-14.1l6.9-2.8l12.9,32.2l-7.6,3l-9.1-12.8l5.7,14.2L96.5,166z"/>
		<path class="st0" d="M113.8,129.6l-4.3,1.2l-1.8-6.2l16-4.6l1.8,6.2l-4.3,1.2l7.8,27.2l-7.5,2.1L113.8,129.6z"/>
		<path class="st0" d="M136.3,152.6l-5.5-29.2c-0.1-0.5-0.1-1.1,0.1-1.7c0.1-0.6,0.4-1.2,0.7-1.8c0.3-0.6,0.8-1,1.3-1.5
			c0.5-0.4,1.1-0.7,1.8-0.8l9-1.7c0.7-0.1,1.3-0.1,2,0c0.7,0.1,1.3,0.4,1.9,0.7s1.1,0.8,1.5,1.3c0.4,0.5,0.7,1.2,0.8,1.9l5.5,29.2
			l-7.7,1.4l-1.4-7.4l-3.7,0.7l1.4,7.4L136.3,152.6z M141.3,137.4l3.7-0.7l-2.4-12.6c-0.1-0.3-0.3-0.6-0.6-0.8
			c-0.3-0.2-0.8-0.3-1.5-0.3c-0.4,0.1-0.8,0.3-1.1,0.6c-0.3,0.2-0.5,0.7-0.5,1.2L141.3,137.4z"/>
		<path class="st0" d="M157.8,142.3l6.5-0.7c0.5-0.2,0.8-0.6,0.9-1.1l-0.6-5.5c-0.1-0.3-0.2-0.5-0.3-0.7c-0.1-0.2-0.3-0.4-0.6-0.4
			l-4.2,0.4c-0.4,0-0.8,0-1.1-0.2c-0.3-0.2-0.6-0.5-0.9-0.8c-0.3-0.4-0.5-0.8-0.7-1.3c-0.2-0.5-0.3-1-0.3-1.5l-1.4-12.8
			c-0.1-0.9,0.1-1.8,0.6-2.5c0.5-0.7,1.4-1.2,2.5-1.3l11.9-1.3l0.7,6.4l-6.7,0.7c-0.4,0.2-0.7,0.6-0.8,1.2l0.5,5
			c0.1,0.7,0.5,1.1,1.1,1.2l4.5-0.5c0.5-0.1,0.9,0.1,1.2,0.3c0.3,0.3,0.6,0.6,0.8,1c0.2,0.4,0.4,0.9,0.5,1.3
			c0.1,0.5,0.2,0.9,0.2,1.2l1.4,12.9c0,0.4,0,0.9-0.1,1.3c-0.1,0.5-0.3,0.9-0.5,1.3c-0.2,0.4-0.5,0.7-0.8,0.9
			c-0.3,0.2-0.7,0.4-1,0.4l-12.5,1.3L157.8,142.3z"/>
		<path class="st0" d="M182.8,146.6l-0.6-15.8l-7.1-18.6l7.8-0.3l2.8,9.6l1.8-9.8l7.8-0.3l-5.3,19.1l0.6,15.8L182.8,146.6z"/>
		<path class="st0" d="M212.5,146.5l3-29.5c0.1-0.5,0.2-1.1,0.6-1.6c0.3-0.6,0.7-1.1,1.2-1.5c0.5-0.4,1-0.8,1.6-1s1.3-0.4,2-0.3
			l9.1,0.9c0.7,0.1,1.3,0.3,1.9,0.6c0.6,0.3,1.1,0.7,1.6,1.2c0.5,0.5,0.8,1.1,1,1.7c0.2,0.6,0.3,1.3,0.2,2l-3,29.5l-7.8-0.8l0.8-7.5
			l-3.8-0.4l-0.8,7.5L212.5,146.5z M221.7,133.3l3.8,0.4l1.3-12.7c0-0.3-0.1-0.7-0.4-0.9c-0.2-0.3-0.7-0.5-1.4-0.7
			c-0.4,0-0.8,0.1-1.2,0.2c-0.4,0.1-0.7,0.5-0.8,1L221.7,133.3z"/>
		<path class="st0" d="M252.9,117.2l7.7,1.5l-5.8,29.1c-0.1,0.7-0.4,1.3-0.8,1.9c-0.4,0.5-0.9,1-1.5,1.3c-0.6,0.3-1.2,0.6-1.9,0.7
			c-0.7,0.1-1.3,0.1-2,0l-9-1.8c-0.7-0.1-1.3-0.4-1.8-0.9c-0.5-0.4-0.9-0.9-1.3-1.5s-0.6-1.2-0.7-1.8c-0.1-0.6-0.2-1.2-0.1-1.7
			l5.8-29.1l7.6,1.5l-5.3,26.3c0,0.6,0.1,1,0.5,1.2c0.3,0.3,0.7,0.5,1.1,0.6c0.7,0,1.2-0.1,1.5-0.3c0.3-0.2,0.5-0.5,0.6-0.8
			L252.9,117.2z"/>
		<path class="st0" d="M257.8,150l7.5-25.8c0.1-0.4,0.3-0.9,0.6-1.3c0.2-0.4,0.5-0.8,0.9-1.1c0.3-0.3,0.7-0.5,1.1-0.7
			c0.4-0.1,0.9-0.1,1.4,0l11,3.2l-1.8,6.2l-6.4-1.8l-6.1,21l6.4,1.8l-1.8,6.1l-10.8-3.1c-0.8-0.2-1.4-0.8-1.8-1.6
			C257.6,152.1,257.5,151.1,257.8,150z"/>
		<path class="st0" d="M287.8,133.7l-4.1-1.6l2.3-6l15.6,5.9l-2.3,6l-4.2-1.6L285,162.9l-7.3-2.8L287.8,133.7z"/>
		<path class="st0" d="M306.7,134.4l7.3,3.3l-14.5,31.5l-7.3-3.3L306.7,134.4z"/>
		<path class="st0" d="M318,143.3c0.5-0.4,1.1-0.7,1.7-0.9c0.6-0.2,1.3-0.3,1.9-0.3c0.7,0,1.3,0.2,1.9,0.5l8,4.4
			c0.6,0.3,1.1,0.8,1.5,1.3c0.4,0.5,0.8,1.1,1,1.7c0.2,0.6,0.3,1.3,0.3,2c0,0.7-0.2,1.3-0.6,2l-12,21.6c-0.4,0.6-0.8,1.1-1.4,1.5
			c-0.6,0.4-1.2,0.6-1.8,0.8c-0.7,0.1-1.3,0.2-2,0.1c-0.7-0.1-1.3-0.3-1.9-0.6l-8-4.4c-0.6-0.3-1.1-0.8-1.5-1.4
			c-0.4-0.6-0.6-1.2-0.7-1.8c-0.1-0.6-0.2-1.3-0.1-1.9c0.1-0.6,0.2-1.2,0.5-1.6l12-21.6C317.1,144.1,317.4,143.7,318,143.3z
			 M325.5,152.6c0.1-0.3,0.1-0.7,0-1s-0.4-0.7-1-1.2c-0.4-0.2-0.8-0.2-1.2-0.3c-0.4,0-0.8,0.2-1.2,0.6l-9.3,16.6
			c-0.2,0.5-0.2,1,0.1,1.3c0.2,0.3,0.5,0.6,0.9,0.9c0.7,0.2,1.2,0.3,1.5,0.2c0.3-0.1,0.6-0.3,0.8-0.6L325.5,152.6z"/>
		<path class="st0" d="M321.8,181.5l20.1-28.3l6.6,4.7l-5.8,14.5l8.8-12.4l6.1,4.3l-20.1,28.3l-6.6-4.7l5.9-14.6l-8.8,12.4
			L321.8,181.5z"/>
	</g>
</g>
<g id="Manager">
	<g>
		<g>
			<path class="st1" d="M133.8,182l-1,2.9c-0.2,0.7-0.7,1-1.3,1c-0.1,0-0.2,0-0.4-0.1c0.2,0.3,0.4,0.5,0.6,0.6
				c0.2,0.1,0.4,0.1,0.5,0.1c0.6,0,1.1-0.3,1.3-1l0.2-0.7V182z"/>
			<path class="st1" d="M172.6,173.1l4.8,9.5v-0.9l-4-8C173.1,173.4,172.9,173.1,172.6,173.1C172.5,173.1,172.5,173.1,172.6,173.1z"
				/>
			<polygon class="st1" points="153.7,181.5 153.3,179.6 152.5,182.8 153.4,182.8 			"/>
			<path class="st1" d="M129.1,182v6.5c0,0.5-0.1,0.8-0.4,1.1c-0.3,0.3-0.6,0.4-1,0.4c-0.1,0-0.3,0-0.4-0.1c0.1,0.1,0.1,0.2,0.2,0.3
				c0.3,0.3,0.6,0.4,1,0.4c0.4,0,0.7-0.1,1-0.4c0.3-0.3,0.4-0.7,0.4-1.1v-4.9L129.1,182z"/>
			<path class="st1" d="M129,173.3l2.4,6.8l0.3-0.8l-1.9-5.4c-0.1-0.3-0.3-0.5-0.5-0.7c-0.1-0.1-0.3-0.2-0.4-0.2
				C128.9,173.1,129,173.2,129,173.3z"/>
			<path class="st1" d="M216.8,186.7c-0.4-0.5-0.6-1.1-0.6-1.7v-6.3c0-0.7,0.2-1.3,0.7-1.9c0.4-0.5,1-0.8,1.6-0.8
				c0.3,0,0.7,0.1,1,0.2c0,0-0.1-0.1-0.1-0.1c-0.4-0.5-1-0.8-1.6-0.8c-0.7,0-1.2,0.3-1.6,0.8c-0.4,0.5-0.7,1.1-0.7,1.9v6.3
				c0,0.7,0.2,1.3,0.7,1.9C216.3,186.4,216.5,186.6,216.8,186.7z"/>
			<path class="st1" d="M259.8,176.1h2.3c0.3,0,0.7,0.1,1,0.2c0,0-0.1-0.1-0.1-0.1c-0.4-0.5-1-0.8-1.6-0.8H259v5.2h0.8V176.1z"/>
			<path class="st1" d="M237.2,186.9h0.8v-3.5h3.2c0.4,0,0.7-0.1,1-0.4c0.3-0.3,0.4-0.7,0.4-1.1c0-0.5-0.1-0.8-0.4-1.1
				c-0.2-0.2-0.4-0.3-0.6-0.4c0.1,0.2,0.2,0.5,0.2,0.8c0,0.5-0.1,0.8-0.4,1.1c-0.3,0.3-0.6,0.4-1,0.4h-3.2V186.9z"/>
			<path class="st1" d="M136.3,173.1c0.1,0.2,0.2,0.5,0.2,0.8v14.6c0,0.5-0.1,0.8-0.4,1.1c-0.3,0.3-0.6,0.4-1,0.4
				c-0.1,0-0.3,0-0.4-0.1c0.1,0.1,0.1,0.2,0.2,0.3c0.3,0.3,0.6,0.4,1,0.4c0.4,0,0.7-0.1,1-0.4c0.3-0.3,0.4-0.7,0.4-1.1v-14.6
				c0-0.5-0.1-0.8-0.4-1.1C136.8,173.2,136.6,173.1,136.3,173.1z"/>
			<polygon class="st1" points="197.3,181.5 196.9,179.6 196.1,182.8 197,182.8 			"/>
			<path class="st1" d="M218.3,183.7c0.1,0.1,0.1,0.2,0.2,0.3c0.3,0.3,0.6,0.4,1,0.4h0.6c0,0,0-0.1,0-0.1v-0.5h-1.4
				C218.5,183.8,218.4,183.8,218.3,183.7z"/>
			<path class="st1" d="M199,174.1c-0.2-0.6-0.5-0.9-1-1.1c0,0,0,0,0,0c0.1,0.1,0.2,0.3,0.2,0.4l3.7,14.6c0.1,0.4,0,0.8-0.1,1.2
				c-0.2,0.4-0.5,0.6-0.8,0.8c-0.1,0-0.2,0.1-0.4,0.1c-0.1,0-0.3,0-0.4-0.1c0.2,0.5,0.6,0.7,1.2,0.7c0.2,0,0.3,0,0.4-0.1
				c0.4-0.1,0.7-0.4,0.8-0.8c0.2-0.4,0.2-0.8,0.1-1.2L199,174.1z"/>
			<path class="st1" d="M222.1,174.6c-0.3-0.3-0.6-0.6-1-0.8c0.1,0.1,0.1,0.1,0.2,0.2c0.5,0.5,0.8,1.1,1.1,1.8
				c0.3,0.7,0.4,1.4,0.4,2.2c0,0.5-0.1,0.8-0.4,1.1c-0.3,0.3-0.6,0.4-1,0.4c-0.1,0-0.3,0-0.4-0.1c0.1,0.1,0.1,0.2,0.2,0.3
				c0.3,0.3,0.6,0.4,1,0.4c0.4,0,0.7-0.1,1-0.4c0.3-0.3,0.4-0.7,0.4-1.1c0-0.8-0.1-1.5-0.4-2.2C223,175.8,222.6,175.2,222.1,174.6z"
				/>
			<path class="st1" d="M244.4,173.1c0.1,0.2,0.2,0.5,0.2,0.8c0,0.5-0.1,0.8-0.4,1.1c-0.3,0.3-0.6,0.4-1,0.4h-6v4.2h0.8v-3.5h6
				c0.4,0,0.7-0.1,1-0.4c0.3-0.3,0.4-0.7,0.4-1.1c0-0.5-0.1-0.8-0.4-1.1C244.9,173.2,244.6,173.1,244.4,173.1z"/>
			<path class="st1" d="M244.4,187.7c0.1,0.2,0.2,0.5,0.2,0.8c0,0.5-0.1,0.8-0.4,1.1c-0.3,0.3-0.6,0.4-1,0.4h-7.4
				c-0.1,0-0.3,0-0.4-0.1c0.1,0.1,0.1,0.2,0.2,0.3c0.3,0.3,0.6,0.4,1,0.4h7.4c0.4,0,0.7-0.1,1-0.4c0.3-0.3,0.4-0.7,0.4-1.1
				c0-0.5-0.1-0.8-0.4-1.1C244.9,187.8,244.6,187.7,244.4,187.7z"/>
			<path class="st1" d="M264.3,183.9c0.9-0.5,1.6-1.2,2.1-2.1s0.8-1.9,0.8-3.1c0-0.8-0.1-1.5-0.4-2.2c-0.3-0.7-0.6-1.3-1.1-1.8
				c-0.3-0.3-0.6-0.6-1-0.8c0.1,0.1,0.1,0.1,0.2,0.2c0.5,0.5,0.8,1.1,1.1,1.8c0.3,0.7,0.4,1.4,0.4,2.2c0,1.1-0.3,2.1-0.8,3.1
				c-0.5,0.9-1.2,1.6-2.1,2.1l2.6,4.4c0.2,0.4,0.3,0.8,0.2,1.2c-0.1,0.4-0.3,0.7-0.6,1c-0.3,0.2-0.6,0.3-0.8,0.3
				c-0.1,0-0.3,0-0.4-0.1l0,0c0.3,0.5,0.7,0.7,1.2,0.7c0.2,0,0.5-0.1,0.8-0.3c0.3-0.2,0.5-0.6,0.6-1c0.1-0.4,0-0.8-0.2-1.2
				L264.3,183.9z"/>
			<path class="st1" d="M260.6,183.8H259v4.7c0,0.5-0.1,0.8-0.4,1.1c-0.3,0.3-0.6,0.4-1,0.4c-0.1,0-0.3,0-0.4-0.1
				c0.1,0.1,0.1,0.2,0.2,0.3c0.3,0.3,0.6,0.4,1,0.4c0.4,0,0.7-0.1,1-0.4c0.3-0.3,0.4-0.7,0.4-1.1v-4.7h1.2L260.6,183.8z"/>
			<path class="st1" d="M179.9,173.1c0.1,0.2,0.2,0.5,0.2,0.8v14.6c0,0.5-0.1,0.8-0.4,1.1c-0.3,0.3-0.6,0.4-1,0.4
				c-0.1,0-0.3,0-0.4,0c0.3,0.5,0.6,0.7,1.2,0.7c0.4,0,0.7-0.1,1-0.4c0.3-0.3,0.4-0.7,0.4-1.1v-14.6c0-0.5-0.1-0.8-0.4-1.1
				C180.4,173.2,180.2,173.1,179.9,173.1z"/>
			<path class="st1" d="M172.7,179.8v8.7c0,0.5-0.1,0.8-0.4,1.1c-0.3,0.3-0.6,0.4-1,0.4c-0.1,0-0.3,0-0.4-0.1
				c0.1,0.1,0.1,0.2,0.2,0.3c0.3,0.3,0.6,0.4,1,0.4c0.4,0,0.7-0.1,1-0.4c0.3-0.3,0.4-0.7,0.4-1.1v-7.8L172.7,179.8z"/>
			<path class="st1" d="M155.4,174.1c-0.2-0.6-0.5-0.9-1-1.1c0,0,0,0,0,0c0.1,0.1,0.2,0.3,0.2,0.4l3.7,14.6c0.1,0.4,0,0.8-0.1,1.2
				c-0.2,0.4-0.5,0.6-0.8,0.8c-0.1,0-0.2,0.1-0.4,0.1c-0.1,0-0.3,0-0.4-0.1c0.2,0.5,0.6,0.7,1.2,0.7c0.2,0,0.3,0,0.4-0.1
				c0.4-0.1,0.6-0.4,0.8-0.8c0.2-0.4,0.2-0.8,0.1-1.2L155.4,174.1z"/>
			<path class="st1" d="M154.8,185.9h-3.2l-0.7,3c-0.2,0.8-0.7,1.1-1.3,1.1c-0.2,0-0.3,0-0.3,0c0.2,0.3,0.4,0.5,0.7,0.6
				c0.1,0,0.2,0.1,0.4,0.1c0.7,0,1.1-0.4,1.3-1.1l0.7-3h2.6L154.8,185.9z"/>
			<path class="st1" d="M222.6,181.4c0.1,0.2,0.2,0.5,0.2,0.8v2.1c0,0.8-0.1,1.5-0.4,2.2c-0.3,0.7-0.6,1.3-1.1,1.8
				c-0.5,0.5-1,0.9-1.6,1.2c-0.6,0.3-1.3,0.4-2,0.4c-0.7,0-1.4-0.1-2-0.4c-0.2-0.1-0.4-0.3-0.6-0.4c0.4,0.4,0.9,0.8,1.4,1
				c0.6,0.3,1.3,0.4,2,0.4c0.7,0,1.4-0.1,2-0.4c0.6-0.3,1.2-0.7,1.6-1.2c0.5-0.5,0.8-1.1,1.1-1.8c0.3-0.7,0.4-1.4,0.4-2.2v-2.1
				c0-0.5-0.1-0.8-0.4-1.1C223.1,181.6,222.8,181.5,222.6,181.4z"/>
			<path class="st1" d="M198.4,185.9h-3.2l-0.7,3c-0.2,0.8-0.7,1.1-1.3,1.1c-0.2,0-0.3,0-0.3,0c0.2,0.3,0.4,0.5,0.7,0.6
				c0.1,0,0.2,0.1,0.4,0.1c0.7,0,1.1-0.4,1.3-1.1l0.7-3h2.6L198.4,185.9z"/>
		</g>
		<g>
			<path class="st2" d="M134.9,173.1c0.4,0,0.7,0.1,1,0.4c0.3,0.3,0.4,0.6,0.4,1v13c0,0.4-0.1,0.7-0.4,1c-0.3,0.3-0.6,0.4-1,0.4
				c-0.4,0-0.7-0.1-1-0.4c-0.3-0.3-0.4-0.6-0.4-1v-5.8l-1,2.6c-0.2,0.6-0.7,0.9-1.3,0.9c-0.2,0-0.3,0-0.5-0.1
				c-0.4-0.2-0.6-0.4-0.8-0.8l-1-2.6v5.8c0,0.4-0.1,0.7-0.4,1c-0.3,0.3-0.6,0.4-1,0.4c-0.4,0-0.7-0.1-1-0.4c-0.3-0.3-0.4-0.6-0.4-1
				v-13c0-0.4,0.1-0.7,0.4-1c0.3-0.3,0.6-0.4,1-0.4c0.3,0,0.6,0.1,0.8,0.3c0.2,0.2,0.4,0.4,0.5,0.6l2.4,6l2.4-6
				c0.1-0.2,0.3-0.5,0.5-0.6C134.3,173.2,134.5,173.1,134.9,173.1z"/>
			<path class="st2" d="M158,187.1c0.1,0.4,0,0.7-0.1,1c-0.2,0.3-0.5,0.5-0.8,0.7c-0.1,0-0.2,0-0.4,0c-0.7,0-1.1-0.3-1.3-1l-0.8-2.7
				h-3.2l-0.7,2.7c-0.2,0.7-0.7,1-1.3,1c-0.2,0-0.3,0-0.4,0c-0.4-0.1-0.6-0.3-0.8-0.7c-0.2-0.3-0.2-0.7-0.1-1l3.7-13
				c0.1-0.4,0.3-0.7,0.7-0.8c0.3-0.2,0.7-0.2,1-0.1c0.5,0.2,0.8,0.5,1,1L158,187.1z M153.7,182.4l-0.8-2.8l-0.8,2.8H153.7z"/>
			<path class="st2" d="M178.5,173.1c0.4,0,0.7,0.1,1,0.4c0.3,0.3,0.4,0.6,0.4,1v13c0,0.4-0.1,0.7-0.4,1c-0.3,0.3-0.6,0.4-1,0.4
				c-0.6,0-1-0.2-1.2-0.7l-4.8-8.4v7.7c0,0.4-0.1,0.7-0.4,1c-0.3,0.3-0.6,0.4-1,0.4c-0.4,0-0.7-0.1-1-0.4c-0.3-0.3-0.4-0.6-0.4-1
				v-13c0-0.4,0.1-0.7,0.4-1c0.3-0.3,0.6-0.4,1-0.4c0.6,0,1,0.2,1.2,0.7l4.8,8.4v-7.7c0-0.4,0.1-0.7,0.4-1
				C177.7,173.2,178.1,173.1,178.5,173.1z"/>
			<path class="st2" d="M201.6,187.1c0.1,0.4,0,0.7-0.1,1c-0.2,0.3-0.5,0.5-0.8,0.7c-0.1,0-0.2,0-0.4,0c-0.7,0-1.1-0.3-1.3-1
				l-0.8-2.7h-3.2l-0.7,2.7c-0.2,0.7-0.7,1-1.3,1c-0.2,0-0.3,0-0.4,0c-0.4-0.1-0.7-0.3-0.8-0.7c-0.2-0.3-0.2-0.7-0.1-1l3.7-13
				c0.1-0.4,0.3-0.7,0.7-0.8s0.7-0.2,1-0.1c0.5,0.2,0.8,0.5,1,1L201.6,187.1z M197.3,182.4l-0.8-2.8l-0.8,2.8H197.3z"/>
			<path class="st2" d="M222.1,180.9c0.3,0.3,0.4,0.6,0.4,1v1.9c0,0.7-0.1,1.4-0.4,2c-0.3,0.6-0.6,1.2-1.1,1.6
				c-0.5,0.5-1,0.8-1.6,1.1c-0.6,0.3-1.3,0.4-2,0.4c-0.7,0-1.4-0.1-2-0.4s-1.2-0.6-1.6-1.1c-0.5-0.5-0.8-1-1.1-1.6
				c-0.3-0.6-0.4-1.3-0.4-2v-5.6c0-0.7,0.1-1.4,0.4-2c0.3-0.6,0.6-1.2,1.1-1.6c0.5-0.5,1-0.8,1.6-1.1c0.6-0.3,1.3-0.4,2-0.4
				c0.7,0,1.4,0.1,2,0.4c0.6,0.3,1.2,0.6,1.6,1.1c0.5,0.5,0.8,1,1.1,1.6c0.3,0.6,0.4,1.3,0.4,2c0,0.4-0.1,0.7-0.4,1
				c-0.3,0.3-0.6,0.4-1,0.4c-0.4,0-0.7-0.1-1-0.4c-0.3-0.3-0.4-0.6-0.4-1c0-0.7-0.2-1.2-0.7-1.6c-0.4-0.4-1-0.7-1.6-0.7
				c-0.7,0-1.2,0.2-1.6,0.7c-0.4,0.4-0.7,1-0.7,1.6v5.6c0,0.7,0.2,1.2,0.7,1.6c0.4,0.4,1,0.7,1.6,0.7c0.6,0,1.2-0.2,1.6-0.7
				c0.4-0.4,0.7-1,0.7-1.6v-0.5h-1.4c-0.4,0-0.7-0.1-1-0.4c-0.3-0.3-0.4-0.6-0.4-1c0-0.4,0.1-0.7,0.4-1c0.3-0.3,0.6-0.4,1-0.4h2.8
				C221.5,180.5,221.9,180.6,222.1,180.9z"/>
			<path class="st2" d="M243.9,186.5c0.3,0.3,0.4,0.6,0.4,1c0,0.4-0.1,0.7-0.4,1c-0.3,0.3-0.6,0.4-1,0.4h-7.4c-0.4,0-0.7-0.1-1-0.4
				c-0.3-0.3-0.4-0.6-0.4-1v-13c0-0.4,0.1-0.7,0.4-1c0.3-0.3,0.6-0.4,1-0.4h7.4c0.4,0,0.7,0.1,1,0.4c0.3,0.3,0.4,0.6,0.4,1
				c0,0.4-0.1,0.7-0.4,1c-0.3,0.3-0.6,0.4-1,0.4h-6v3.7h3.2c0.4,0,0.7,0.1,1,0.4c0.3,0.3,0.4,0.6,0.4,1c0,0.4-0.1,0.7-0.4,1
				c-0.3,0.3-0.6,0.4-1,0.4h-3.2v3.7h6C243.3,186.1,243.7,186.2,243.9,186.5z"/>
			<path class="st2" d="M265.9,186.7c0.2,0.3,0.3,0.7,0.2,1.1c-0.1,0.4-0.3,0.7-0.6,0.9c-0.3,0.2-0.6,0.2-0.8,0.2
				c-0.5,0-0.9-0.2-1.2-0.6l-3.3-5h-1.6v4.2c0,0.4-0.1,0.7-0.4,1c-0.3,0.3-0.6,0.4-1,0.4c-0.4,0-0.7-0.1-1-0.4
				c-0.3-0.3-0.4-0.6-0.4-1v-13c0-0.4,0.1-0.7,0.4-1c0.3-0.3,0.6-0.4,1-0.4h3.7c0.7,0,1.4,0.1,2,0.4c0.6,0.3,1.2,0.6,1.6,1.1
				c0.5,0.5,0.8,1,1.1,1.6c0.3,0.6,0.4,1.3,0.4,2c0,1-0.3,1.9-0.8,2.7c-0.5,0.8-1.2,1.4-2.1,1.9L265.9,186.7z M258.7,180.5h2.3
				c0.6,0,1.2-0.2,1.6-0.7c0.4-0.4,0.7-1,0.7-1.6c0-0.7-0.2-1.2-0.7-1.6c-0.4-0.4-1-0.7-1.6-0.7h-2.3V180.5z"/>
		</g>
	</g>
</g>
<g id="Bottom_Line">
	<path class="st0" d="M198.1,233.2c-0.2,0-0.4,0-0.6-0.1c-8.2-1.8-91.2-18.5-91.2-41.2c0-1.4,1.2-2.6,2.7-2.6c1.5,0,2.7,1.2,2.7,2.6
		c0,14,56.8,29.5,86.3,36.1c29.5-6.6,86.3-22.1,86.3-36.1c0-1.4,1.2-2.6,2.7-2.6s2.7,1.2,2.7,2.6c0,22.8-83,39.4-91.2,41.2
		C198.5,233.2,198.3,233.2,198.1,233.2z"/>
	<linearGradient id="SVGID_1_" gradientUnits="userSpaceOnUse" x1="160.9334" y1="217.1051" x2="228.6705" y2="211.0841">
		<stop  offset="4.497710e-02" style="stop-color:#CADAF1"/>
		<stop  offset="1" style="stop-color:#CADAF1;stop-opacity:0"/>
	</linearGradient>
	<path class="st3" d="M197.7,202.5V228c0,0,92.3-16.7,86.7-36.1C284.4,191.9,241.5,198.5,197.7,202.5z"/>
</g>
<g id="Top_Line">
	<path class="st0" d="M311,126.7c-0.4,0-0.8-0.1-1.2-0.3c-31.8-16.4-72.7-25.3-115.3-25.1c-34.9,0.1-68.5,6.2-97.1,17.7
		c-1.4,0.5-3-0.1-3.5-1.5c-0.6-1.4,0.1-3,1.5-3.5c29.3-11.7,63.6-18,99.1-18.1c43.4-0.2,85.2,9,117.8,25.7c1.3,0.7,1.8,2.3,1.2,3.6
		C312.9,126.2,312,126.7,311,126.7z"/>
</g>
<g id="Pizza">
</g>
<g id="Mug">
	<g>
		<path class="st1" d="M266.2,24l-6.2-0.5l0.3-3.8c0.4-5.3-3.4-10-8.6-10.3l-37.6-2.8c-5.1-0.4-9.6,3.6-10,9l-5.1,69.5
			c-0.4,5.3,3.4,10,8.6,10.3l37.6,2.8c5.1,0.4,9.6-3.6,10-9l1.4-19.2l12-4.2c5.4-1.9,9.2-7,9.6-12.9l1-13.2
			C279.8,31.6,274,24.5,266.2,24z M268.3,52.1c-0.1,1.7-1.2,3.2-2.8,3.7l-8,2.8l1.8-24.8l6.2,0.5c2.2,0.2,3.9,2.2,3.8,4.5
			L268.3,52.1z"/>
		<path class="st4" d="M208.5,36.7c0,0-1.3-9.2,4.7-10c6-0.8,8.3,1.6,8.3,1.6s5.8-5.3,11.3-3.6c0,0,7.3-3.3,12.2,0.5
			c0,0,10.9,0.7,8,14.2L208.5,36.7z"/>
		<path class="st5" d="M208.5,36.3l-3.4,46.6c-0.2,3.2,2.1,6,5.1,6.2l33.4,2.5c3.1,0.2,5.7-2.2,6-5.4l1.4-18.9l0.3-4l1.7-23.7
			L208.5,36.3z"/>
		<g>
			<circle class="st6" cx="216.3" cy="76.2" r="1.9"/>
			<circle class="st6" cx="235.5" cy="60.4" r="1.9"/>
			<circle class="st6" cx="220.3" cy="50.1" r="1.7"/>
			<circle class="st6" cx="245.2" cy="48.5" r="1.3"/>
			<circle class="st6" cx="243.8" cy="76.9" r="1.7"/>
			<circle class="st6" cx="229.1" cy="42.8" r="1.3"/>
			<circle class="st6" cx="217.3" cy="41.8" r="1.5"/>
			<circle class="st6" cx="226" cy="85" r="1.7"/>
		</g>
		<g class="st7">
			<path class="st8" d="M214.3,83.2L214.3,83.2c-1.9-0.1-3.2-1.7-3.1-3.6l3.5-47.2c0.1-1.9,1.7-3.2,3.6-3.1v0
				c1.9,0.1,3.2,1.7,3.1,3.6l-3.5,47.2C217.8,82,216.2,83.4,214.3,83.2z"/>
			<path class="st8" d="M227.9,84.2L227.9,84.2c-1.9-0.1-3.2-1.7-3.1-3.6l3.5-47.2c0.1-1.9,1.7-3.2,3.6-3.1v0
				c1.9,0.1,3.2,1.7,3.1,3.6l-3.5,47.2C231.3,83,229.7,84.4,227.9,84.2z"/>
			<path class="st8" d="M240.9,85.2L240.9,85.2c-1.9-0.1-3.2-1.7-3.1-3.6l3.5-47.2c0.1-1.9,1.7-3.2,3.6-3.1l0,0
				c1.9,0.1,3.2,1.7,3.1,3.6l-3.5,47.2C244.3,83.9,242.7,85.3,240.9,85.2z"/>
		</g>
	</g>
</g>
<g id="Football">
	<g>
		<path class="st9" d="M196.7,49.1c0,0-5.5,37.5-47.7,49.2c-43.5,12.1-66.2-17.6-66.2-17.6s8.5-38.3,47.7-49.2
			C176.6,18.8,196.7,49.1,196.7,49.1z"/>
		<path class="st10" d="M82.9,80.7c0,0,22.7,29.7,66.2,17.6c42.1-11.7,47.7-49.2,47.7-49.2s0-0.1-0.1-0.1L82.9,80.5
			C82.9,80.6,82.9,80.7,82.9,80.7z"/>
		<g>
			<path class="st11" d="M160.7,60.4l-39.7,11c-0.8,0.2-1.7-0.3-1.9-1.1c-0.2-0.8,0.3-1.7,1.1-1.9l39.7-11c0.8-0.2,1.7,0.3,1.9,1.1
				C162,59.4,161.5,60.2,160.7,60.4z"/>
			<path class="st11" d="M132,74.4c-0.8,0.2-1.7-0.3-1.9-1.1l-3.3-11.8c-0.2-0.8,0.3-1.7,1.1-1.9c0.8-0.2,1.7,0.3,1.9,1.1l3.3,11.8
				C133.3,73.3,132.8,74.2,132,74.4z"/>
			<path class="st11" d="M138.7,72.6c-0.8,0.2-1.7-0.3-1.9-1.1l-3.3-11.8c-0.2-0.8,0.3-1.7,1.1-1.9c0.8-0.2,1.7,0.3,1.9,1.1
				l3.3,11.8C140,71.5,139.5,72.3,138.7,72.6z"/>
			<path class="st11" d="M145.3,70.7c-0.8,0.2-1.7-0.3-1.9-1.1l-3.3-11.8c-0.2-0.8,0.3-1.7,1.1-1.9c0.8-0.2,1.7,0.3,1.9,1.1
				l3.3,11.8C146.6,69.6,146.2,70.5,145.3,70.7z"/>
			<path class="st11" d="M152,68.9c-0.8,0.2-1.7-0.3-1.9-1.1L146.8,56c-0.2-0.8,0.3-1.7,1.1-1.9c0.8-0.2,1.7,0.3,1.9,1.1l3.3,11.8
				C153.3,67.8,152.8,68.6,152,68.9z"/>
		</g>
		<path class="st12" d="M106,96.9c2.5,1,5.1,1.8,7.9,2.5l-13.8-49.6c-2,2.1-3.8,4.3-5.4,6.5L106,96.9z"/>
		<path class="st12" d="M181.1,79.3c2-2.2,3.8-4.5,5.4-6.7l-11-39.7c-2.4-1-5.1-1.9-8-2.7L181.1,79.3z"/>
	</g>
</g>
<g id="Hat">
	<g>
		<path class="st13" d="M79.1,89.5l-48.8,47.5c-1.4,1.4-3.8,1.4-5.2-0.1l0,0c-1.4-1.4-1.4-3.8,0.1-5.2L74,84.2
			c1.4-1.4,3.8-1.4,5.2,0.1l0,0C80.6,85.8,80.6,88.1,79.1,89.5z"/>
		<path class="st2" d="M121.2,31.4l-7.3-7.5l10.4-10.2c-20.6-9.5-44.6-6.9-60.6,8.6c-21.2,20.6-20,56.2,2.6,79.4l76.7-74.7
			c-2.9-3-6.1-5.7-9.4-8L121.2,31.4z"/>
		<path class="st14" d="M66.4,101.8l18.9-18.4C60.7,56.9,63.8,22.4,63.8,22.4C42.6,43,43.8,78.6,66.4,101.8z"/>
		<ellipse transform="matrix(0.7165 -0.6975 0.6975 0.7165 3.5488 50.465)" class="st15" cx="63.9" cy="20.9" rx="5.2" ry="2.4"/>
		<path class="st13" d="M51.9,41.9c0,0,3.5,4.9,10.8,2c0,0,4.5,23.5-9.5,31.9C53.2,75.9,46.1,64.8,51.9,41.9z"/>
	</g>
	<g>
		<path class="st16" d="M296.6,107.7c0,0,3.2-3-1.2-4.2c-3.6-1-37.2-11.2-48.8-14.7c-2.7-0.8-5.3-0.5-6.4,0.8
			c-1.3,1.5-1.9,3.8,1.6,6.4C248.2,100.5,296.6,107.7,296.6,107.7z"/>
		<path class="st17" d="M240.9,93.5l0-0.1c0.5-1.6,2.9-2.2,5.4-1.5l48.3,14.5c9.9,3,15,7.4,15,7.4c4.8,3.8,5.9,8.8,2.7,12l-4.3,8.8
			c-5.9,8.1-11,0.6-10.7-2.5l-26.1-23.2c-6.2-3.6-13-6.7-20-9.2l-7.6-2.7C241.8,96.2,240.6,94.7,240.9,93.5z"/>
		<path class="st16" d="M257.8,97.3c0,0,15.8,3.6,17.7,5.6c1.9,2-6.7,1.4-10.9-0.3s2.1-1.3,0.5-2C263.4,99.9,247.7,96.1,257.8,97.3z
			"/>
		<path class="st16" d="M291.6,106.9c0,0,8,1.5,9.9,3.2c1.9,1.6-0.2,2.9-2.7,2.3S279,105.5,291.6,106.9z"/>
		<path class="st16" d="M292.3,113.3c0,0,4.1,3.4,2.1,4.6c-2.1,1.2-8-0.5-10.3-2.1c-2.3-1.7-4.3-5.4-0.5-4.5
			C287.3,112.3,289.2,114.8,292.3,113.3z"/>
		<path class="st16" d="M305.4,118.6c0,0,6.6,1.6,6.4,3.7c-0.2,2.1-5.7,2.8-8.2,1.2C301.2,122,295.7,116.3,305.4,118.6z"/>
	</g>
</g>
</svg>
