<?xml version="1.0" encoding="utf-8"?>
<!-- Generator: Adobe Illustrator 23.0.6, SVG Export Plug-In . SVG Version: 6.00 Build 0)  -->
<svg version="1.1" id="Layer_1" xmlns="http://www.w3.org/2000/svg" xmlns:xlink="http://www.w3.org/1999/xlink" x="0px" y="0px"
	 viewBox="0 0 150 150" style="enable-background:new 0 0 150 150;" xml:space="preserve">
<style type="text/css">
	.st0{fill:#2B8BCB;}
	.st1{clip-path:url(#SVGID_2_);}
	.st2{fill:#EFDFB6;}
	.st3{fill:#D8BF86;}
	.st4{fill:#22C3EA;}
	.st5{fill:#DFECF3;}
	.st6{fill:#FFFFFF;}
	.st7{fill:#64BC46;}
	.st8{fill:#34404A;}
	.st9{fill:#1FA9CB;}
	.st10{fill:#F7C746;}
	.st11{opacity:0.1;fill:#0B4D68;}
</style>
<circle class="st0" cx="70.5" cy="78.4" r="65.2"/>
<g>
	<defs>
		<path id="SVGID_1_" d="M103.4,22.2v-33.1H38.9v32.3C18.9,32.5,5.3,53.9,5.3,78.4c0,36,29.2,65.2,65.2,65.2s65.2-29.2,65.2-65.2
			C135.6,54.5,122.7,33.5,103.4,22.2z"/>
	</defs>
	<clipPath id="SVGID_2_">
		<use xlink:href="#SVGID_1_"  style="overflow:visible;"/>
	</clipPath>
	<g class="st1">
		<g>
			<path class="st2" d="M33.6,121.4l2.3,18l-11.7-2.1c-3,0-5.5-2.8-5.5-6.2l-1-14.6L33.6,121.4z"/>
			<path class="st3" d="M56.9,74.2c4.1,2.3,8.8,3.5,13.5,3.5s9.4-1.3,13.5-3.5l1.2-0.7v9.6L70.5,98.3L55.7,83.1v-9.6L56.9,74.2z"/>
			<path class="st2" d="M122.6,116.5l-1,14.6c0,3.4-2.5,6.2-5.5,6.2l-11.7,2.1l2.3-18L122.6,116.5z"/>
			<path class="st4" d="M35.9,123.9L19,117.6c-2.4-0.8-3.9-3-3.9-5.6v-10.4c0-2.4,0.6-4.8,1.8-6.9l0.5-0.9l13.2,13.6
				C34.6,110.3,35.9,123.9,35.9,123.9z"/>
			<path class="st4" d="M109.8,107.4l13.2-13.6l0.5,0.9c1.2,2.1,1.8,4.4,1.8,6.9V112c0,2.6-1.6,4.9-3.9,5.6l-16.9,6.3
				C104.4,123.9,105.7,110.3,109.8,107.4z"/>
			<path class="st2" d="M96.4,39.3v10.1c0,16.9-11.7,30.7-26.1,30.7s-26-13.8-26-30.5V39.3l0.7-0.1c4.9-0.8,13.4-1.6,25.4-1.6
				s20.5,0.9,25.4,1.6L96.4,39.3z"/>
			<path class="st5" d="M38.3,142c0,0-6-31-8.7-33.8L15,93.1l2.7-2.4l0.1-0.1c1.7-1.3,3.4-2.1,5.2-2.6l24.1-6.7l9.8,20.4
				c3.8-3.6,11.5-8.1,11.5-8.1h4c0,0,8.3,5.3,11.2,8.2l0.1-0.2l9.8-20.2l24.1,6.7c1.8,0.5,3.5,1.3,5.2,2.6l3,2.3l-14.6,15.2
				c-2.2,2.2-10,33-10,33l-30.3,7.5L38.3,142z"/>
			<path class="st6" d="M72.8,97.1c2.5,1.3,6.3,3.7,10.3,7.9c0.3,0.3,0.6,0.4,0.9,0.4c0.1,0,0.2,0,0.3,0c0.7-0.1,0.8-0.5,1.3-1.3
				l0.5-1.2l8.9-18.3l22.1,6.1c1.6,0.4,3,1.2,4.3,2.2l0.8,0.6l-12.7,13.2c-2.4,2.5-10.3,32.7-10.3,32.7l-28.3,6.9l-30.3-6.4
				c0,0-6.7-30.9-9.1-33.4L18.7,93.3l0.7-0.6c1.3-1,2.8-1.8,4.3-2.2l22.1-6.1l9.4,19.5c0.4,0.8,0.6,1.3,1.3,1.3c0.1,0,0.2,0,0.3,0
				c0.3,0,0.7-0.2,0.9-0.4c4-4.1,7.8-6.5,10.3-7.9l1.2-0.6h2.7L72.8,97.1z"/>
			<path class="st7" d="M67.7,95.2l-1,0.5c-2.3,1.1-5.7,3.2-9.5,6.8l-0.8,0.7l-9.1-18.9c-0.8-1.6-0.3-3.5,1.1-4.4l2.7-1.8L67.7,95.2
				z"/>
			<path class="st8" d="M54.4,69.3c2.1,1.4,4.9,2,8.2,2c2.9,0,5.2-0.8,6.7-2.6l0.8-0.9l0.8,0.9c1.6,1.7,3.9,2.6,6.7,2.6
				c3.3,0,6.1-0.6,8.2-2c1.8-1.1,3-2.6,3.3-4.2c0.2-0.8-0.4-1.6-1.1-1.8c-0.1,0-0.2,0-0.4,0c-0.7,0-1.3,0.5-1.5,1.2
				c-0.1,0.6-0.6,1.3-1.4,1.8l-0.2,0.1h-0.2c-0.2,0-0.4,0.1-0.5,0.1c-1.2,0-1.8-1-2.9-2.7c-0.6-1.1-1.5-2.5-2.7-3.4
				c-1.8-1.4-3.5-1.7-4.6-1.7s-2.1,0.3-3,0.6l-0.2,0.1l-0.5,0.2l-0.6-0.3c-0.8-0.5-1.9-0.6-3-0.6c-1.2,0-3,0.3-4.6,1.7
				c-1.2,0.9-1.9,2.2-2.7,3.4c-1,1.8-1.7,2.7-2.9,2.7c-0.2,0-0.3,0-0.5-0.1h-0.2l-0.2-0.1c-0.7-0.6-1.3-1.3-1.4-1.8
				c-0.2-0.6-0.7-1.2-1.5-1.2c-0.1,0-0.2,0-0.4,0c-0.4,0.1-0.7,0.3-0.9,0.6c-0.2,0.4-0.3,0.7-0.2,1.1C51.5,66.7,52.7,68.1,54.4,69.3
				z"/>
			<path class="st7" d="M93.6,82c0.2,0.8,0.1,1.6-0.3,2.3l-9.1,18.9l-0.8-0.7C79.7,99,76.2,97,74,95.7l-1-0.5L89.7,78l2.7,1.8
				C93,80.6,93.5,81.2,93.6,82z"/>
			<path class="st9" d="M92.6,38.8C87.3,37,66.5,33,48.3,39c-1.1,0.4-3.5,0.5-3.5,0.5l-2.1,1.6l-1.2-20c0.2-3.7,2.6-6.9,6-7.8
				l21.1-6.1l0.1,0c0.8-0.2,1.4-0.2,1.9-0.2c0.5,0,1.1,0.1,1.9,0.2l0.1,0l21.1,6.1c3,0.9,5.4,4.1,5.9,7.6l0,0.1l-1,20.5
				C98.5,41.5,93.8,39.2,92.6,38.8z"/>
			<path class="st4" d="M97,21.2l-0.6,16.5c0,0-1.7-1.6-2.9-2.1c-5.6-1.9-13-3-20.9-3.2h-0.8V18.2c0-0.8-0.6-1.6-1.3-1.6
				s-1.3,0.7-1.3,1.6v14.4h-0.8c-7.9,0.2-14.1,1.2-19.7,3.1c-1.3,0.5-3.6,1.4-3.6,1.4l-1.2-15.8c0.2-2.7,1.8-5,4.2-5.6l21.1-6.1
				c0.4-0.1,0.9-0.2,1.3-0.2c0.4,0,0.9,0.1,1.3,0.2l21.1,6.1C95,16.3,96.7,18.6,97,21.2z"/>
			<path class="st10" d="M47.4,37.5c6.1-1.5,14.3-2.3,23.1-2.3c8.7,0,16.9,0.8,23,2.3c2.3,0.6,4.2,1.2,5.7,1.8l0.3,0.2l-0.8,2.6
				c0,0-14.4-3.3-28.3-3.3s-28.7,3.5-28.7,3.5l-0.3-2.8l0.3-0.2C43.1,38.7,45.1,38.1,47.4,37.5z"/>
			
				<rect x="89" y="107.1" transform="matrix(0.1179 -0.993 0.993 0.1179 -36.177 192.2236)" class="st5" width="2.2" height="18.8"/>
			<path class="st11" d="M69.8,136.4c-34.5,0-62.8-28-65.3-63.6c-0.1,1.7-0.2,3.4-0.2,5.1c0,38,29.3,68.7,65.5,68.7
				c36.2,0,65.5-30.8,65.5-68.7c0-1.7-0.1-3.4-0.2-5.1C132.5,108.3,104.3,136.4,69.8,136.4z"/>
		</g>
	</g>
</g>
</svg>
