<?xml version="1.0" encoding="utf-8"?>
<!-- Generator: Adobe Illustrator 22.1.0, SVG Export Plug-In . SVG Version: 6.00 Build 0)  -->
<svg version="1.1" id="Layer_1" xmlns="http://www.w3.org/2000/svg" xmlns:xlink="http://www.w3.org/1999/xlink" x="0px" y="0px"
	 width="200px" height="200px" viewBox="0 0 200 200" style="enable-background:new 0 0 200 200;" xml:space="preserve">
<style type="text/css">
	.st0{fill:#FFFFFF;}
	.st1{opacity:0.2;}
	.st2{fill:#6A6C6D;}
	.st3{stroke:#010101;stroke-width:0.5;stroke-linecap:round;stroke-linejoin:round;}
	.st4{fill:#FEDC5C;}
	.st5{fill:#F79974;}
	.st6{fill:#6DCFF2;}
	.st7{fill:#F9D447;}
	.st8{opacity:0.4;}
</style>
<g>
	<circle class="st0" cx="100.6" cy="99.2" r="97.2"/>
	<g class="st1">
		<path d="M172.4,46.3l-61.8,0.9l-0.1-5.8c0-1.1-0.8-1.9-1.8-1.9s-1.8,0.9-1.7,1.9l0.1,5.8l-61.8,0.9c-1,0-1.8,0.9-1.8,1.9l-0.5,15
			c0,1,0.7,1.8,1.7,1.8l5.4,0l-4.1,79.9c-0.1,1,0.7,1.9,1.7,1.9l56.3,1.8l0,0.1l7.6,0.2l0-0.1l56.3,1.8c1,0,1.9-0.8,1.9-1.9
			l-1.7-84.4l5.4,0c1,0,1.7-0.9,1.7-2l-0.7-15.9C174.2,47.2,173.4,46.3,172.4,46.3z"/>
	</g>
	<g>
		<path class="st2" d="M161.4,49.1h-60.5v-5.2c0-1-0.8-1.7-1.7-1.7s-1.7,0.8-1.7,1.7v5.2H37c-1,0-1.7,0.8-1.7,1.7v13.8
			c0,1,0.8,1.7,1.7,1.7h5.2v74.3c0,1,0.8,1.7,1.7,1.7h51.9l0,0.1h7l0-0.1h51.8c1,0,1.7-0.8,1.7-1.7V66.4h5.2c1,0,1.7-0.8,1.7-1.7
			V50.8C163.2,49.9,162.4,49.1,161.4,49.1z"/>
		<rect x="45.6" y="66.4" class="st3" width="107.2" height="72.6"/>
		<rect x="38.7" y="52.6" class="st4" width="121" height="10.4"/>
		<path class="st5" d="M76.9,98.2H56.4c-2,0-3.7-1.7-3.7-3.7V82c0-2,1.7-3.7,3.7-3.7h20.6c2,0,3.7,1.7,3.7,3.7v12.4
			C80.7,96.5,79,98.2,76.9,98.2z"/>
		<path class="st6" d="M109,98.2H88.4c-2,0-3.7-1.7-3.7-3.7V82c0-2,1.7-3.7,3.7-3.7H109c2,0,3.7,1.7,3.7,3.7v12.4
			C112.7,96.5,111,98.2,109,98.2z"/>
		<path class="st5" d="M142.4,98.2h-20.6c-2,0-3.7-1.7-3.7-3.7V82c0-2,1.7-3.7,3.7-3.7h20.6c2,0,3.7,1.7,3.7,3.7v12.4
			C146.1,96.5,144.4,98.2,142.4,98.2z"/>
		<path class="st6" d="M76.9,126.7H56.4c-2,0-3.7-1.7-3.7-3.7v-12.4c0-2,1.7-3.7,3.7-3.7h20.6c2,0,3.7,1.7,3.7,3.7V123
			C80.7,125.1,79,126.7,76.9,126.7z"/>
		<path class="st5" d="M109,126.7H88.4c-2,0-3.7-1.7-3.7-3.7v-12.4c0-2,1.7-3.7,3.7-3.7H109c2,0,3.7,1.7,3.7,3.7V123
			C112.7,125.1,111,126.7,109,126.7z"/>
		<path class="st6" d="M142.4,126.7h-20.6c-2,0-3.7-1.7-3.7-3.7v-12.4c0-2,1.7-3.7,3.7-3.7h20.6c2,0,3.7,1.7,3.7,3.7V123
			C146.1,125.1,144.4,126.7,142.4,126.7z"/>
	</g>
</g>
<rect x="-60" y="241" class="st7" width="50.3" height="36.3"/>
<g>
	<path class="st8" d="M73.9,85.7H63.5c-0.7,0-1.3-0.6-1.3-1.3v0c0-0.7,0.6-1.3,1.3-1.3h10.4c0.7,0,1.3,0.6,1.3,1.3v0
		C75.3,85.1,74.7,85.7,73.9,85.7z"/>
	<path class="st8" d="M76.5,90.7h-13c-0.7,0-1.3-0.6-1.3-1.3l0,0c0-0.7,0.6-1.3,1.3-1.3h13c0.7,0,1.3,0.6,1.3,1.3l0,0
		C77.8,90.1,77.2,90.7,76.5,90.7z"/>
	<path class="st8" d="M73.9,95.7H63.5c-0.7,0-1.3-0.6-1.3-1.3v0c0-0.7,0.6-1.3,1.3-1.3h10.4c0.7,0,1.3,0.6,1.3,1.3v0
		C75.3,95.1,74.7,95.7,73.9,95.7z"/>
</g>
<g>
	<path class="st8" d="M139.3,85.7h-10.4c-0.7,0-1.3-0.6-1.3-1.3v0c0-0.7,0.6-1.3,1.3-1.3h10.4c0.7,0,1.3,0.6,1.3,1.3v0
		C140.6,85.1,140,85.7,139.3,85.7z"/>
	<path class="st8" d="M141.8,90.7h-13c-0.7,0-1.3-0.6-1.3-1.3l0,0c0-0.7,0.6-1.3,1.3-1.3h13c0.7,0,1.3,0.6,1.3,1.3l0,0
		C143.2,90.1,142.6,90.7,141.8,90.7z"/>
	<path class="st8" d="M139.3,95.7h-10.4c-0.7,0-1.3-0.6-1.3-1.3v0c0-0.7,0.6-1.3,1.3-1.3h10.4c0.7,0,1.3,0.6,1.3,1.3v0
		C140.6,95.1,140,95.7,139.3,95.7z"/>
</g>
<g>
	<path class="st8" d="M73.9,114.7H63.5c-0.7,0-1.3-0.6-1.3-1.3v0c0-0.7,0.6-1.3,1.3-1.3h10.4c0.7,0,1.3,0.6,1.3,1.3v0
		C75.3,114.1,74.7,114.7,73.9,114.7z"/>
	<path class="st8" d="M76.5,119.7h-13c-0.7,0-1.3-0.6-1.3-1.3l0,0c0-0.7,0.6-1.3,1.3-1.3h13c0.7,0,1.3,0.6,1.3,1.3l0,0
		C77.8,119.1,77.2,119.7,76.5,119.7z"/>
	<path class="st8" d="M73.9,124.7H63.5c-0.7,0-1.3-0.6-1.3-1.3v0c0-0.7,0.6-1.3,1.3-1.3h10.4c0.7,0,1.3,0.6,1.3,1.3v0
		C75.3,124.1,74.7,124.7,73.9,124.7z"/>
</g>
<g>
	<path class="st8" d="M105.9,85.7H95.5c-0.7,0-1.3-0.6-1.3-1.3v0c0-0.7,0.6-1.3,1.3-1.3h10.4c0.7,0,1.3,0.6,1.3,1.3v0
		C107.3,85.1,106.7,85.7,105.9,85.7z"/>
	<path class="st8" d="M108.5,90.7h-13c-0.7,0-1.3-0.6-1.3-1.3l0,0c0-0.7,0.6-1.3,1.3-1.3h13c0.7,0,1.3,0.6,1.3,1.3l0,0
		C109.8,90.1,109.2,90.7,108.5,90.7z"/>
	<path class="st8" d="M105.9,95.7H95.5c-0.7,0-1.3-0.6-1.3-1.3v0c0-0.7,0.6-1.3,1.3-1.3h10.4c0.7,0,1.3,0.6,1.3,1.3v0
		C107.3,95.1,106.7,95.7,105.9,95.7z"/>
</g>
<g>
	<path class="st8" d="M105.9,114.2H95.5c-0.7,0-1.3-0.6-1.3-1.3v0c0-0.7,0.6-1.3,1.3-1.3h10.4c0.7,0,1.3,0.6,1.3,1.3v0
		C107.3,113.6,106.7,114.2,105.9,114.2z"/>
	<path class="st8" d="M108.5,119.2h-13c-0.7,0-1.3-0.6-1.3-1.3l0,0c0-0.7,0.6-1.3,1.3-1.3h13c0.7,0,1.3,0.6,1.3,1.3l0,0
		C109.8,118.6,109.2,119.2,108.5,119.2z"/>
	<path class="st8" d="M105.9,124.2H95.5c-0.7,0-1.3-0.6-1.3-1.3v0c0-0.7,0.6-1.3,1.3-1.3h10.4c0.7,0,1.3,0.6,1.3,1.3v0
		C107.3,123.6,106.7,124.2,105.9,124.2z"/>
</g>
<g>
	<path class="st8" d="M138.9,114.2h-10.4c-0.7,0-1.3-0.6-1.3-1.3v0c0-0.7,0.6-1.3,1.3-1.3h10.4c0.7,0,1.3,0.6,1.3,1.3v0
		C140.3,113.6,139.7,114.2,138.9,114.2z"/>
	<path class="st8" d="M141.5,119.2h-13c-0.7,0-1.3-0.6-1.3-1.3l0,0c0-0.7,0.6-1.3,1.3-1.3h13c0.7,0,1.3,0.6,1.3,1.3l0,0
		C142.8,118.6,142.2,119.2,141.5,119.2z"/>
	<path class="st8" d="M138.9,124.2h-10.4c-0.7,0-1.3-0.6-1.3-1.3v0c0-0.7,0.6-1.3,1.3-1.3h10.4c0.7,0,1.3,0.6,1.3,1.3v0
		C140.3,123.6,139.7,124.2,138.9,124.2z"/>
</g>
</svg>
