<?xml version="1.0" encoding="utf-8"?>
<!-- Generator: Adobe Illustrator 23.0.6, SVG Export Plug-In . SVG Version: 6.00 Build 0)  -->
<svg version="1.1" id="Layer_1" xmlns="http://www.w3.org/2000/svg" xmlns:xlink="http://www.w3.org/1999/xlink" x="0px" y="0px"
	 viewBox="0 0 150 150" style="enable-background:new 0 0 150 150;" xml:space="preserve">
<style type="text/css">
	.st0{opacity:0.25;fill:url(#SVGID_1_);}
	.st1{opacity:0.27;fill:#332D14;enable-background:new    ;}
	.st2{fill:#EACB49;}
	.st3{fill:#FFFFFF;}
	.st4{fill:none;stroke:#BAC2CC;stroke-width:0.25;stroke-miterlimit:10;}
	.st5{fill:#D87EB4;}
	.st6{fill:#F7C746;}
	.st7{fill:#64BC46;}
</style>
<radialGradient id="SVGID_1_" cx="74.6" cy="-40.6" r="65.1248" gradientTransform="matrix(1 0 0 1 0 118)" gradientUnits="userSpaceOnUse">
	<stop  offset="4.317326e-02" style="stop-color:#FEE540"/>
	<stop  offset="1" style="stop-color:#F89B57"/>
</radialGradient>
<circle class="st0" cx="74.6" cy="77.4" r="65.2"/>
<g>
	<g>
		<path class="st1" d="M29.8,108.4l4.5-5.3c0.4-0.5,0.6-1,0.9-1.6c0.8-2.1,5.1-3.8,10.3-3.8h58.2c5.2,0,9.5,1.6,10.3,3.8
			c0.2,0.6,0.4,1.1,0.9,1.6l4.5,5.3c3.4,4,0,9.5-6,9.6c-0.1,0-0.1,0-0.2,0H35.9c-0.1,0-0.1,0-0.2,0C29.8,118,26.4,112.4,29.8,108.4z
			"/>
		<path class="st2" d="M38.3,108.8c-6.9,0-12.5-5.6-12.5-12.5V53.9c0-6.9,5.6-12.5,12.5-12.5h72.6c6.9,0,12.5,5.6,12.5,12.5v42.5
			c0,6.9-5.6,12.5-12.5,12.5L38.3,108.8L38.3,108.8z"/>
		<path class="st3" d="M110.8,105.2H38.3c-5.7,0-10.4-4.6-10.4-10.4V53.9c0-5.7,4.6-10.4,10.4-10.4h72.6c5.7,0,10.4,4.6,10.4,10.4
			v40.9C121.2,100.6,116.6,105.2,110.8,105.2z"/>
		<line class="st4" x1="30.7" y1="65.5" x2="119.4" y2="65.5"/>
		<line class="st4" x1="30.7" y1="84.5" x2="119.4" y2="84.5"/>
		<line class="st4" x1="51.4" y1="59.4" x2="51.4" y2="91.1"/>
		<line class="st4" x1="75.2" y1="59.4" x2="75.2" y2="91.1"/>
		<line class="st4" x1="96.6" y1="59.4" x2="96.6" y2="91.1"/>
		<rect x="33.4" y="47.6" class="st5" width="12.5" height="12.5"/>
		<rect x="57.9" y="47.6" class="st6" width="12.5" height="12.5"/>
		<rect x="79.5" y="47.6" class="st5" width="12.5" height="12.5"/>
		
			<rect x="99.8" y="49.7" transform="matrix(0.218 -0.9759 0.9759 0.218 28.3465 147.2927)" class="st7" width="12.5" height="12.5"/>
		
			<rect x="99.8" y="68.5" transform="matrix(4.027252e-02 -0.9992 0.9992 4.027252e-02 27.1256 177.7365)" class="st7" width="12.5" height="12.5"/>
		<rect x="60.7" y="68.5" class="st6" width="12.5" height="12.5"/>
		
			<rect x="99.9" y="87.3" transform="matrix(0.9797 -0.2007 0.2007 0.9797 -16.6161 23.2082)" class="st6" width="12.5" height="12.5"/>
		<rect x="33.4" y="88.5" class="st7" width="12.5" height="12.5"/>
		
			<rect x="33.4" y="67.4" transform="matrix(0.9797 -0.2007 0.2007 0.9797 -13.9744 9.4565)" class="st7" width="12.5" height="12.5"/>
		
			<rect x="58" y="88.5" transform="matrix(4.027252e-02 -0.9992 0.9992 4.027252e-02 -33.0639 155.1148)" class="st5" width="12.5" height="12.5"/>
		
			<rect x="79.6" y="88.5" transform="matrix(4.027252e-02 -0.9992 0.9992 4.027252e-02 -12.2676 176.6389)" class="st5" width="12.5" height="12.5"/>
	</g>
</g>
</svg>
