<?xml version="1.0" encoding="utf-8"?>
<!-- Generator: Adobe Illustrator 22.1.0, SVG Export Plug-In . SVG Version: 6.00 Build 0)  -->
<svg version="1.1" id="Layer_1" xmlns="http://www.w3.org/2000/svg" xmlns:xlink="http://www.w3.org/1999/xlink" x="0px" y="0px"
	 width="28px" height="28px" viewBox="0 0 28 28" style="enable-background:new 0 0 28 28;" xml:space="preserve">
<style type="text/css">
	.st0{fill:#0FA6D5;}
</style>
<path class="st0" d="M13.6,20.8c-4.6,0-8.4-3.8-8.4-8.4C5.2,7.7,8.9,4,13.6,4c4.6,0,8.4,3.8,8.4,8.4C22,17,18.2,20.8,13.6,20.8z
	 M13.6,6.2c-3.4,0-6.1,2.7-6.1,6.1s2.7,6.1,6.1,6.1c3.4,0,6.1-2.7,6.1-6.1S16.9,6.2,13.6,6.2z"/>
<rect x="20.7" y="19" transform="matrix(0.7072 -0.707 0.707 0.7072 -8.7713 21.7046)" class="st0" width="2.3" height="4.9"/>
</svg>
