<?xml version="1.0" encoding="utf-8"?>
<!-- Generator: Adobe Illustrator 22.1.0, SVG Export Plug-In . SVG Version: 6.00 Build 0)  -->
<svg version="1.1" id="Layer_1" xmlns="http://www.w3.org/2000/svg" xmlns:xlink="http://www.w3.org/1999/xlink" x="0px" y="0px"
	 width="200px" height="200px" viewBox="0 0 200 200" style="enable-background:new 0 0 200 200;" xml:space="preserve">
<style type="text/css">
	.st0{fill:#23B5DE;stroke:url(#SVGID_1_);stroke-miterlimit:10;}
	.st1{opacity:0.6;clip-path:url(#SVGID_3_);}
	.st2{fill:#1882B2;}
	.st3{clip-path:url(#SVGID_5_);}
	.st4{fill:#FFFFFF;}
	.st5{fill:#F7C746;}
	.st6{fill:#DFE0E0;}
	.st7{fill:#344049;}
	.st8{fill:#F15826;}
</style>
<g>
	<radialGradient id="SVGID_1_" cx="99.7" cy="99.2" r="97.7" gradientUnits="userSpaceOnUse">
		<stop  offset="0" style="stop-color:#047293"/>
		<stop  offset="1" style="stop-color:#0FA6D5"/>
	</radialGradient>
	<circle class="st0" cx="99.7" cy="99.2" r="97.2"/>
	<g>
		<g>
			<defs>
				<circle id="SVGID_2_" cx="99.7" cy="99.2" r="96.9"/>
			</defs>
			<clipPath id="SVGID_3_">
				<use xlink:href="#SVGID_2_"  style="overflow:visible;"/>
			</clipPath>
			<g class="st1">
				<path class="st2" d="M173.9,167.1c1.6-1.5,2.6-3.6,2.7-5.8l0.7-10.6c0.5-7.4-4.1-14.3-11.3-16.8l-24.1-8.2v-0.6
					c-0.1-2-1-3.7-2.6-4.9l-3.7-2.8c-0.2-0.2-0.5-0.3-0.9-0.3h-0.9l0.2-3.5l0.4-0.2c4.2-2.8,7.6-6.4,10-10.6c2.3-4,3.7-8.6,4.1-13.3
					l0.6-8.9l1,0.3c0.7,0.2,1,0.3,1,0.3c0.1,0,0.2,0.1,0.3,0.1c0.4,0,0.9-0.1,1.2-0.4c1.1-1.1,1.7-2.2,1.8-3.4
					c0.1-1.7-0.6-3.2-2.4-4.8l-0.3-0.2l-0.4-17.6c-0.1-3.8-2.6-7.2-6.3-8.4L122.2,39c-0.7-0.2-1.4-0.4-2.2-0.4
					c-0.7-0.1-1.5,0-2.2,0.1l-23.7,4.1c-3.8,0.7-6.8,3.6-7.4,7.4l-2.8,17.4l-0.3,0.2c-1.9,1.3-2.9,2.7-3,4.4
					c-0.1,1.2,0.4,2.4,1.3,3.6c0.2,0.3,0.7,0.5,1.1,0.6c0.1,0,0.2,0,0.3,0c0,0,0.4-0.1,1.1-0.1l1-0.1l-0.6,8.9c0,0.5-0.1,1,0,1.6
					c-0.2,9.2,3.6,17.9,10.7,24.1l0.3,0.3l-0.2,2.6l-0.2,0.9l-0.9-0.1c-0.3,0-0.6,0-0.9,0.2l-4.1,2.3c-1.7,0.9-2.9,2.6-3.2,4.5
					l-0.1,0.6l-25,4.7c-7.4,1.4-13,7.6-13.5,15L47,152.2c-0.2,2.2,0.5,4.4,1.9,6.1l0.2,0.2l-0.6,9.2c-0.3,5,2.6,20.9,7.7,21.3
					l106.4,7.5c5,0.4,10.2-15,10.5-20l0.6-9.2L173.9,167.1z"/>
			</g>
		</g>
		<g>
			<defs>
				<circle id="SVGID_4_" cx="99.4" cy="98.9" r="96.9"/>
			</defs>
			<clipPath id="SVGID_5_">
				<use xlink:href="#SVGID_4_"  style="overflow:visible;"/>
			</clipPath>
			<g class="st3">
				<g id="XMLID_9_">
					<g>
						<path class="st4" d="M167.8,147.6v12c0,2.9-1.8,5.5-4.5,6.5l-16.9,5.8v-8.8c0-3.3,1.3-6.5,3.5-8.8l15.1-15.6l0.6,1
							C167.1,142.1,167.8,144.8,167.8,147.6z"/>
						<path class="st5" d="M165.1,169.1v8.1c0,3.7-2.9,6.8-6.6,6.8h-12.1v-8.4L165.1,169.1z"/>
						<path class="st6" d="M132.1,69.8v10.6c0,17.8-14,32.4-31.2,32.4S69.8,98.3,69.8,80.6V69.8l0.8-0.1c5.9-0.8,16-1.7,30.4-1.7
							s24.5,1,30.4,1.7L132.1,69.8z"/>
						<path class="st7" d="M165.1,177.1v-8.1l-18.6,6.4v8.4h12.1C162.1,183.9,165.1,180.9,165.1,177.1z M167.8,159.6v-12
							c0-2.8-0.7-5.5-2.1-7.9l-0.6-1l-15.1,15.6c-2.3,2.4-3.5,5.5-3.5,8.8v8.8l16.9-5.8C165.9,165.1,167.8,162.6,167.8,159.6z
							 M131.1,122.2l26.5,7.3c7.9,2.2,13.4,9.6,13.4,18.1v12c0,2.5-0.9,4.9-2.5,6.8l-0.2,0.3v10.4c0,5.6-4.4,23.5-9.9,23.5h-57v-1.3
							l33.8-8.3l6-28.4c0-4.3,3.4-7.7,6.3-10.7l15.2-15.8l-0.9-0.7c-1.5-1.2-3.3-2.1-5.2-2.6l-26.4-7.3l-10.6,21.9l-2.9-1.5
							l10.5-21.8c0.4-0.9,0.5-1.8,0.3-2.7l3.2-0.6c0.1,0.3,0.1,0.5,0.1,0.8L131.1,122.2z"/>
						<path class="st5" d="M127.8,121.2c0.2,0.9,0.1,1.9-0.3,2.7l-10.5,21.8l-0.9-0.8c-4.4-4-8.4-6.4-11-7.8l-1.1-0.6l19.2-19.9
							l3.1,2.1C127.1,119.6,127.6,120.3,127.8,121.2z"/>
						<path class="st4" d="M103.9,140.6c3,1.6,7.5,4.4,12.3,9.4c0.3,0.3,0.7,0.5,1.1,0.5c0.1,0,0.2,0,0.3,0c0.8-0.1,1-0.6,1.5-1.6
							l0.6-1.4l10.6-21.9l26.4,7.3c1.9,0.5,3.6,1.4,5.2,2.6l0.9,0.7l-15.2,15.8c-2.9,3-6.3,6.5-6.3,10.7l-6,28.4l-33.8,8.3
							l-36.3-7.6L60,162.9c0-4.3-2.8-8.1-5.7-11.1L39.1,136l0.8-0.7c1.6-1.2,3.3-2.1,5.2-2.6l26.4-7.3l11.2,23.3
							c0.5,1,0.7,1.5,1.5,1.6c0.1,0,0.2,0,0.3,0c0.4,0,0.8-0.2,1.1-0.5c4.8-4.9,9.3-7.8,12.3-9.4l1.4-0.7v28.7
							c0,0.9,0.7,1.7,1.6,1.7s1.6-0.8,1.6-1.7v-28.7L103.9,140.6z"/>
						<path class="st5" d="M98.1,136.6l-1.2,0.6c-2.6,1.3-6.6,3.7-11,7.8l-0.9,0.8l-10.5-21.8c-0.9-1.8-0.3-4,1.3-5.1l3.1-2.1
							L98.1,136.6z"/>
						<path class="st6" d="M84.8,112.2c4.9,2.7,10.5,4.2,16.2,4.2s11.2-1.5,16.2-4.2l1.4-0.8v5.4l-17.5,18.2l-17.7-18.2v-5.4
							L84.8,112.2z"/>
						<path class="st5" d="M74.3,60c7.1-2.1,16.6-3.3,26.7-3.3s19.6,1.1,26.6,3.3c2.7,0.8,4.9,1.7,6.6,2.6l0.4,0.3l0.4,4l-1.2-0.2
							c-6.1-0.9-16.8-2-32.8-2s-26.7,1.1-32.8,2L67,66.8l0.4-4l0.4-0.3C69.4,61.7,71.7,60.8,74.3,60z"/>
						<path class="st7" d="M117.2,112.2c-5,2.7-10.5,4.2-16.2,4.2s-11.2-1.5-16.2-4.2l-1.4-0.8v5.4l17.5,18.2l17.5-18.2v-5.4
							L117.2,112.2z M80.2,111.9V109l-0.4-0.3c-8.5-6.9-13.3-17.1-13.3-28.2V70.4l-1.1,0.2c-0.7,0.1-1.1,0.2-1.1,0.2
							c-0.1,0-0.2,0-0.4,0c-0.4,0-0.9-0.2-1.2-0.6c-1.1-1.3-1.7-2.6-1.7-4c0-1.9,0.9-3.6,2.9-5.2l0.3-0.3l1.7-19.9
							c0.4-4.3,3.4-7.9,7.4-9l25.2-6.5c0.8-0.2,1.6-0.3,2.4-0.3s1.6,0.1,2.4,0.3l25.2,6.5c4.1,1,7.1,4.7,7.4,9l1.7,19.9l0.3,0.3
							c1.9,1.6,2.9,3.3,2.9,5.2c0,1.4-0.6,2.7-1.7,4c-0.3,0.4-0.8,0.6-1.2,0.6c-0.1,0-0.2,0-0.4,0c0,0-0.4-0.1-1.1-0.2l-1.1-0.2
							v10.1c0,11.1-4.9,21.4-13.3,28.2l-0.4,0.3v3.9l1-0.1c0.4,0,0.7,0.1,1,0.3l4.2,2.9c1.5,1.1,2.6,2.7,3,4.6l-3.2,0.6
							c-0.2-0.9-0.8-1.8-1.6-2.3l-3.1-2.1l-19.2,19.9l1.1,0.6c2.6,1.3,6.6,3.7,11,7.8l0.9,0.8l2.9,1.5l-0.6,1.4
							c-0.5,1-0.7,1.5-1.5,1.6c-0.1,0-0.2,0-0.3,0c-0.4,0-0.9-0.2-1.1-0.5c-4.8-4.9-9.3-7.8-12.3-9.4l-1.3-0.7v28.7
							c0,0.9-0.7,1.7-1.6,1.7s-1.6-0.8-1.6-1.7v-28.7l-1.4,0.7c-2.9,1.6-7.5,4.5-12.3,9.4c-0.3,0.3-0.7,0.5-1.1,0.5
							c-0.1,0-0.2,0-0.3,0c-0.8-0.1-1.1-0.6-1.5-1.6l-11.2-23.3l-0.7-3.3l0.1-0.7c0.2-2.2,1.4-4.1,3.1-5.4l4.2-2.9
							c0.3-0.2,0.6-0.3,0.9-0.3h1L80.2,111.9z M98.1,136.6l-19.2-19.9l-3.1,2.1c-1.6,1.1-2.2,3.3-1.3,5.1L85,145.7l0.9-0.8
							c4.4-4,8.4-6.4,11-7.8L98.1,136.6z M68.2,66.7c6.1-0.9,16.8-2,32.8-2s26.7,1.1,32.8,2l1.2,0.2l-0.4-4l-0.4-0.3
							c-1.7-1-3.9-1.8-6.6-2.6c-7.1-2.1-16.6-3.3-26.6-3.3S81.4,57.8,74.3,60c-2.7,0.8-4.9,1.7-6.5,2.6l-0.4,0.3l-0.4,4L68.2,66.7z
							 M100.9,68.1c-14.4,0-24.5,1-30.4,1.7l-0.8,0.1v10.6c0,17.8,14,32.4,31.2,32.4s31.2-14.5,31.2-32.4V69.8l-0.8-0.1
							C125.4,68.9,115.4,68.1,100.9,68.1z"/>
						<path class="st4" d="M55.5,163.1v8.8l-16.9-5.8c-2.7-0.9-4.5-3.5-4.5-6.5v-12c0-2.8,0.7-5.5,2.1-7.9l0.6-1l15.1,15.6
							C54.3,156.6,55.5,159.8,55.5,163.1z"/>
						<path class="st5" d="M55.5,175.4l-1,11.2l-11-2.7c-3.6,0-6.6-3.1-6.6-6.8V169L55.5,175.4z"/>
						<path class="st7" d="M55.5,175.4l-18.6-6.4v8.1c0,3.7,3,6.8,6.6,6.8l11,2.7L55.5,175.4z M55.5,171.9v-8.8
							c0-3.3-1.3-6.5-3.5-8.8l-15.1-15.6l-0.6,1c-1.4,2.4-2.1,5.1-2.1,7.9v12c0,2.9,1.8,5.5,4.5,6.5L55.5,171.9z M33.5,166.4
							c-1.6-1.9-2.5-4.3-2.5-6.8v-12c0-8.5,5.5-15.9,13.4-18.1l26.5-7.3l0.7,3.3l-26.4,7.3c-1.9,0.5-3.6,1.4-5.2,2.6l-0.8,0.7
							l15.2,15.8c2.9,3,5.7,6.9,5.7,11.1l5.2,28.8l36.2,7.5v1.3h-58c-5.4,0-9.9-17.8-9.9-23.5v-10.4L33.5,166.4z"/>
					</g>
				</g>
				<g id="XMLID_8_">
					<g>
						<path class="st8" d="M132.8,41.2l1.5,17.5l-1.4-0.6c-1.3-0.5-2.8-1-4.3-1.5c-6.7-2-15.6-3.2-25-3.4h-0.9V38
							c0-0.9-0.7-1.7-1.6-1.7S99.5,37,99.5,38v15.4h-0.9c-9.4,0.2-18.3,1.4-25,3.4c-1.6,0.5-3,1-4.3,1.5l-1.5,0.5l1.5-17.5
							c0.2-2.9,2.2-5.3,5-6l25.2-6.5c0.5-0.1,1.1-0.2,1.6-0.2s1.1,0.1,1.6,0.2l25.2,6.5C130.4,36,132.4,38.5,132.8,41.2z"/>
					</g>
				</g>
			</g>
		</g>
	</g>
	<path class="st7" d="M84.2,99.8c2.3,1.5,5.3,2.2,8.9,2.2c3.1,0,5.6-0.9,7.3-2.8l0.9-1l0.9,1c1.7,1.8,4.2,2.8,7.3,2.8
		c3.6,0,6.6-0.7,8.9-2.2c1.9-1.2,3.2-2.8,3.6-4.5c0.2-0.9-0.4-1.7-1.2-1.9c-0.1,0-0.2,0-0.4,0c-0.8,0-1.4,0.5-1.6,1.3
		c-0.1,0.6-0.7,1.4-1.5,2l-0.2,0.1h-0.2c-0.2,0-0.4,0.1-0.5,0.1c-1.3,0-2-1.1-3.1-2.9c-0.7-1.2-1.6-2.7-2.9-3.7
		c-1.9-1.5-3.8-1.8-5-1.8s-2.3,0.3-3.3,0.7l-0.2,0.1l-0.5,0.2l-0.6-0.3c-0.9-0.5-2.1-0.7-3.3-0.7c-1.3,0-3.2,0.3-5,1.8
		c-1.3,1-2.1,2.4-2.9,3.7c-1.1,1.9-1.8,2.9-3.1,2.9c-0.2,0-0.3,0-0.5-0.1h-0.2l-0.2-0.1c-0.8-0.6-1.4-1.4-1.5-2
		c-0.2-0.7-0.8-1.3-1.6-1.3c-0.1,0-0.2,0-0.4,0c-0.4,0.1-0.8,0.3-1,0.7c-0.2,0.4-0.3,0.8-0.2,1.2C81,97,82.3,98.6,84.2,99.8z"/>
</g>
</svg>
